#!OML:ASF F:\twosubjects\two\wednesday\Session 1\rory1.ASF
:FULLY-SPECIFIED
:DEGREES
276
root 0.303748 17.1003 -19.3131 314.84 77.3396 -46.9983
lowerback 10.1082 1.37073 -8.04278
upperback 2.81826 1.05119 -3.98522
thorax -2.77685 0.623931 0.226944
lowerneck 0.583145 -21.913 -20.4298
upperneck 2.72783 -32.7427 30.223
head 9.58564 -15.6812 8.18714
rclavicle -2.22639e-014 -1.59028e-014
rhumerus 115.634 -72.638 -150.715
rradius 10.2535
rwrist 12.5429
rhand -0.973774 8.60439
rfingers 7.12502
rthumb 24.6573 -19.8271
lclavicle -2.22639e-014 -1.59028e-014
lhumerus -20.8302 8.49382 29.2179
lradius 27.3315
lwrist 2.46727
lhand -24.5062 18.584
lfingers 7.12502
lthumb 1.98851 48.5545
rfemur -20.6082 10.1583 15.0846
rtibia 59.4983
rfoot -0.72165 -3.43617
rtoes -8.3609
lfemur -29.4059 0.329487 -9.99507
ltibia 49.8522
lfoot -21.5969 0.403613
ltoes -19.2232
277
root 0.550345 17.0304 -19.4437 323.211 76.5348 -38.6976
lowerback 10.0777 1.46111 -8.50542
upperback 2.68808 1.11184 -4.24607
thorax -2.90153 0.663464 0.200027
lowerneck 0.824952 -21.8141 -20.4988
upperneck 2.41763 -32.5304 30.1111
head 9.37084 -15.635 8.25201
rclavicle 3.18055e-015 -1.59028e-014
rhumerus 112.034 -72.8398 -147.132
rradius 10.5961
rwrist 11.5038
rhand -0.0895295 8.73742
rfingers 7.12502
rthumb 25.5046 -19.5756
lclavicle 3.18055e-015 -1.59028e-014
lhumerus -20.5121 8.15642 28.9092
lradius 27.3032
lwrist 2.74484
lhand -24.8528 18.2687
lfingers 7.12502
lthumb 1.65375 48.2421
rfemur -23.2646 9.78653 13.4609
rtibia 62.66
rfoot 1.65589 -0.845216
rtoes -7.33213
lfemur -28.8152 1.60042 -11.6313
ltibia 50.7791
lfoot -22.7855 3.0705
ltoes -21.6677
278
root 0.80743 17.0011 -19.5687 330.506 75.6939 -31.0474
lowerback 10.3865 1.5725 -9.222
upperback 2.76872 1.15903 -4.54972
thorax -2.99305 0.697844 0.263431
lowerneck 0.872929 -21.7463 -20.335
upperneck 1.99445 -32.3501 30.2541
head 9.1816 -15.5785 8.34029
rclavicle 8.74653e-015 2.22639e-014
rhumerus 106.864 -73.1189 -141.702
rradius 10.7768
rwrist 9.82742
rhand 0.184804 8.49943
rfingers 7.12502
rthumb 25.7674 -19.7758
lclavicle 8.74653e-015 2.22639e-014
lhumerus -19.8895 8.18133 28.6274
lradius 27.1929
lwrist 2.54101
lhand -24.8435 18.7685
lfingers 7.12502
lthumb 1.66267 48.7418
rfemur -25.1358 9.45413 11.8628
rtibia 65.3154
rfoot 2.84236 1.51894
rtoes -4.88041
lfemur -27.4709 2.85981 -13.4865
ltibia 51.0405
lfoot -23.9139 5.63123
ltoes -23.7866
279
root 1.06218 16.9856 -19.6807 336.482 74.7414 -24.4734
lowerback 11.0026 1.6621 -10.1759
upperback 2.88702 1.11075 -4.77287
thorax -3.21073 0.690875 0.544362
lowerneck 0.830987 -21.6972 -20.1597
upperneck 1.78512 -32.2173 30.2774
head 9.06114 -15.5267 8.36557
rclavicle -9.54166e-015 3.18055e-015
rhumerus 99.1154 -73.3871 -133.564
rradius 10.8192
rwrist 7.41813
rhand 0.166852 7.95075
rfingers 7.12502
rthumb 25.7502 -20.3269
lclavicle -9.54166e-015 3.18055e-015
lhumerus -19.3438 8.92881 28.3218
lradius 27.0691
lwrist 1.61057
lhand -24.6858 19.4332
lfingers 7.12502
lthumb 1.81505 49.4053
rfemur -26.4646 9.30502 10.4191
rtibia 67.365
rfoot 2.70981 4.15706
rtoes 0.144203
lfemur -25.9205 4.10052 -15.2996
ltibia 51.1298
lfoot -24.8023 6.52389
ltoes -22.161
280
root 1.31469 16.9726 -19.7836 341.838 73.7972 -18.565
lowerback 11.6156 1.79409 -11.4938
upperback 2.90092 1.05118 -4.90205
thorax -3.53958 0.687811 1.12011
lowerneck 1.33421 -21.7004 -20.3741
upperneck 1.37648 -32.2601 30.6414
head 8.97504 -15.6149 8.54421
rclavicle 7.23576e-014 -4.13472e-014
rhumerus 86.7537 -73.644 -120.65
rradius 11.1761
rwrist 3.50364
rhand 0.312089 7.3553
rfingers 7.12502
rthumb 25.8893 -20.9022
lclavicle 7.23576e-014 -4.13472e-014
lhumerus -18.9259 9.35957 28.2308
lradius 27.1309
lwrist 1.09625
lhand -25.1844 19.8726
lfingers 7.12502
lthumb 1.3335 49.8482
rfemur -27.7583 8.96743 8.93995
rtibia 68.9233
rfoot 1.70804 7.58516
rtoes 1.7667
lfemur -24.4857 5.32156 -17.2053
ltibia 51.094
lfoot -25.3731 6.66273
ltoes -19.6713
